<svg xmlns="http://www.w3.org/2000/svg" viewBox="0 0 928 593" width="464" height="296"><rect width="928" height="593" fill="#f7f3ea"/><path d="M0.0,590.0L0.0,587.0Q112.0,587.0 124.9,585.7Q125.7,584.7 121.9,580.4Q114.3,573.0 115.2,549.1L116.4,542.2Q108.8,529.7 97.5,525.0Q91.6,523.1 82.3,523.4Q75.8,523.9 71.0,522.5Q69.3,521.6 58.3,520.6Q52.9,520.4 43.5,519.5Q39.6,519.0 33.0,520.9Q27.7,522.9 24.5,521.1Q22.8,520.1 15.8,518.6Q11.3,518.0 7.0,514.5Q3.8,511.2 5.4,509.1Q6.4,508.0 6.7,505.8Q6.5,505.1 9.9,500.5Q11.9,498.3 14.9,492.7Q16.6,487.5 8.5,485.0Q5.5,485.0 2.2,482.7L0.0,480.4L0.0,207.9Q7.5,204.8 7.1,201.7Q6.3,200.9 9.2,197.3Q11.0,195.5 13.5,194.0Q14.2,194.0 19.7,199.4Q23.3,203.4 28.3,205.5Q32.7,206.3 44.5,204.2Q46.1,203.6 50.0,202.5Q51.4,202.2 59.0,196.0L65.5,190.1L58.0,182.4L67.0,173.6L60.0,166.4Q71.9,154.7 78.6,156.4Q80.8,158.0 83.0,154.1Q83.0,152.2 90.7,146.0Q91.3,146.0 96.0,149.5Q100.6,153.3 105.0,151.5Q106.1,150.2 104.1,147.7Q103.0,146.4 102.0,143.4Q102.0,139.3 94.1,137.0Q89.9,137.0 85.5,133.0Q81.1,128.5 77.5,131.0Q76.5,132.1 74.6,133.0Q74.0,133.0 68.8,128.3L64.0,123.6L54.8,134.1Q47.3,127.0 43.3,125.0Q42.4,125.0 38.4,128.1L35.3,131.1Q29.3,128.5 24.4,126.3Q21.6,125.0 15.4,126.9L9.5,128.9Q3.7,123.3 3.7,119.8Q4.1,117.7 2.1,114.0Q-0.6,110.2 2.3,105.2L4.7,103.0Q7.5,106.1 9.3,107.0Q9.9,107.0 16.7,102.9L23.1,98.7Q28.3,103.6 35.7,100.7Q38.4,98.8 45.7,98.6Q49.4,98.6 55.6,100.0Q58.6,101.3 62.0,98.7Q63.7,97.2 67.0,96.0Q68.1,96.0 72.5,92.9L76.1,89.7Q83.1,96.4 88.4,93.1Q89.7,91.7 89.3,86.0Q88.8,82.9 86.9,79.7Q84.6,78.3 76.6,83.0Q74.5,84.9 72.5,85.0Q72.1,84.4 70.1,85.0Q68.7,85.7 65.0,82.5Q61.1,78.5 56.5,81.0Q53.8,84.0 47.0,78.5L42.6,74.0L37.0,79.4Q31.1,73.7 28.4,72.0Q27.8,72.0 24.2,68.7L21.0,65.4Q27.1,59.8 23.2,53.8Q19.8,50.3 21.3,48.2Q22.6,46.8 21.8,45.2Q19.7,43.1 13.0,48.5L8.4,53.0L-0.4,44.0L4.2,39.1Q0.2,36.6 0.0,27.0Q0.0,21.4 1.1,16.3Q1.9,15.5 1.1,14.6Q0.5,14.2 -0.0,6.9L0.0,0.0L928.0,0.0L928.0,6.0Q864.8,6.2 842.7,6.0Q840.6,5.9 837.4,7.1Q836.1,8.1 838.1,10.6Q840.2,12.8 843.2,11.4Q846.1,9.9 849.6,13.1Q852.2,15.6 853.0,19.9Q853.0,22.6 856.8,27.3L860.5,31.2Q852.4,38.5 850.0,41.6Q850.0,42.2 853.3,45.8L856.6,49.0L863.2,42.2Q871.1,47.5 874.4,49.0Q875.0,49.0 878.5,46.0L881.6,43.0L886.3,48.0L895.5,37.9L906.3,48.9Q901.4,54.5 900.6,57.1Q902.0,59.4 887.2,67.4Q886.5,67.5 874.6,78.3L863.3,88.9L857.0,82.4Q862.3,77.2 860.7,75.3Q859.1,73.7 855.2,77.3Q850.9,81.5 846.1,79.1Q844.6,78.0 840.4,76.4Q838.8,76.0 835.1,73.8Q832.0,71.4 827.2,74.5Q823.0,78.0 816.0,72.5Q813.6,70.0 810.7,68.0Q810.2,68.0 804.2,73.4Q799.4,77.9 793.8,79.2Q789.5,79.7 785.9,76.4Q782.9,73.3 777.0,73.0Q771.7,73.0 767.0,77.5Q762.9,81.6 758.6,81.4Q755.4,80.9 752.0,82.8L749.5,84.8Q743.1,79.4 735.7,82.4L732.2,84.8Q727.1,79.4 723.2,82.5Q721.5,83.9 717.7,85.0Q714.3,85.0 714.0,89.5Q714.7,90.4 716.8,90.5Q717.8,90.1 722.6,94.1Q726.2,97.6 728.8,97.1Q732.3,95.2 738.6,99.1Q741.2,101.9 745.5,101.4Q747.7,101.0 757.4,100.8Q764.0,100.9 767.6,103.1Q769.8,105.2 773.9,104.0Q777.3,102.9 784.1,104.8Q787.9,105.9 794.1,106.3Q796.2,106.0 798.4,106.9Q799.8,109.2 807.5,104.0Q809.6,101.8 812.2,100.0Q812.6,100.0 816.5,103.2L820.1,106.3L828.6,98.0Q833.8,103.3 838.2,106.1Q841.0,107.2 845.4,103.1Q848.7,99.9 853.1,99.0Q855.9,99.0 860.5,95.0L864.4,91.0Q871.1,97.5 870.8,99.7Q870.0,100.7 871.5,103.0Q873.3,105.0 876.0,102.5Q879.6,99.1 886.3,103.8Q889.1,106.6 888.9,108.7Q888.0,109.6 889.9,112.6Q891.0,114.1 892.0,116.5Q892.0,118.1 881.8,126.0Q881.1,126.0 877.5,123.0L874.4,120.0Q868.7,126.0 861.0,123.0Q859.0,121.9 854.4,126.1L850.0,130.4Q842.0,122.6 837.3,126.3Q835.3,128.1 832.3,127.0Q830.7,126.3 824.0,125.5Q821.0,125.4 815.4,123.7Q812.9,122.4 808.6,123.1Q806.6,123.6 803.9,123.4Q803.3,123.1 800.6,124.9Q799.0,126.4 791.5,127.6L784.5,128.2Q779.2,122.6 776.7,121.0Q776.2,121.0 772.7,123.6Q769.9,125.9 764.4,125.6Q760.1,125.1 757.5,127.0Q756.1,128.6 749.3,129.0Q743.5,129.0 739.1,132.5Q734.7,136.5 728.4,133.9Q725.9,131.6 722.3,134.6Q721.9,135.7 726.2,140.1Q728.7,142.2 732.8,147.4L734.8,150.8Q729.5,155.9 726.0,161.6Q724.9,163.9 721.9,167.5Q720.0,169.3 723.7,173.2Q726.3,175.8 730.2,177.0Q731.8,177.0 737.8,179.5Q740.4,180.9 744.5,182.0Q745.5,182.0 750.7,177.8L755.0,173.6L762.0,180.4L770.6,172.0L777.0,178.6L771.7,183.8Q776.7,190.8 772.4,196.0Q768.4,200.4 772.6,206.1Q776.2,209.5 778.8,201.4Q779.0,197.9 781.5,194.0L783.8,191.5L778.0,184.6L785.0,177.6Q791.2,183.6 793.0,186.4Q793.0,186.9 790.8,189.7Q788.8,191.9 790.2,193.7Q791.8,195.2 795.5,192.2Q797.5,190.4 800.3,189.0Q802.1,189.0 810.0,199.1Q810.0,199.9 808.8,201.8Q807.3,203.3 812.2,206.0Q814.6,206.0 819.0,199.3Q819.0,198.4 822.2,194.3L825.4,191.0L833.0,198.4L838.6,193.0L846.4,201.0L854.5,193.1L860.3,198.2L870.2,187.0Q881.7,197.5 886.3,199.0Q888.3,199.0 893.2,202.5Q896.4,205.5 900.9,205.8Q903.8,205.7 908.0,208.3Q912.5,212.1 922.3,208.0Q924.2,206.3 926.9,205.0Q927.7,205.0 928.0,304.4Q928.0,393.5 926.4,405.1Q921.4,409.2 918.3,438.1Q918.5,447.7 915.8,453.2Q913.7,457.1 912.5,468.4Q911.9,477.6 914.0,485.1Q915.2,488.6 917.8,493.4Q919.4,495.1 914.6,499.7L909.7,504.1L902.0,496.6L894.4,504.0L888.6,498.0Q881.0,505.4 876.9,507.0Q875.4,507.0 871.6,509.9Q869.0,512.6 860.1,513.3Q855.4,513.6 845.0,514.8Q841.4,515.4 829.2,516.5Q820.8,517.2 816.5,520.1Q814.7,521.7 812.3,523.0Q810.3,523.0 809.0,528.0Q811.2,531.5 805.6,539.9Q802.6,542.9 801.7,546.1Q802.0,547.2 801.0,551.1Q799.8,553.8 802.4,556.9Q803.9,558.5 804.5,561.2Q803.8,563.0 810.2,565.9Q814.5,567.3 823.6,577.3Q824.0,578.5 826.7,583.2L829.0,587.0L928.0,587.0L928.0,593.0L0.0,593.0Z" fill="#2b221a"/><path d="M37.7,171.2L33.0,166.4L40.0,159.6L49.5,169.0L42.4,176.0Z" fill="#2b221a"/><path d="M738.3,169.8Q735.5,166.8 736.5,164.6Q737.3,163.6 737.5,162.0Q737.3,161.6 740.3,158.2L743.6,155.0L753.4,165.0Q747.4,171.2 743.5,173.0Q742.3,173.0 738.3,169.8Z" fill="#2b221a"/><path d="M761.2,167.7Q759.4,165.9 758.0,162.9Q758.0,162.1 762.0,157.5L766.0,153.6L774.0,161.6L764.4,171.0Z" fill="#2b221a"/><path d="M0.0,590.0Q0.0,587.1 5.2,586.8Q8.1,586.7 18.3,586.9Q25.4,587.2 27.6,585.1Q29.5,582.5 35.5,585.0Q39.0,587.3 47.4,585.5Q49.1,584.2 51.6,585.5Q54.5,587.4 59.4,585.5Q60.5,584.7 63.6,584.0Q65.0,584.0 68.0,581.0Q70.2,578.0 78.5,578.2Q86.8,578.5 90.2,575.2Q92.1,573.5 95.4,572.0Q96.4,572.0 100.1,569.1Q105.5,563.7 94.6,559.4Q91.8,559.4 86.3,558.6Q84.3,558.1 79.6,559.1Q76.4,560.2 73.0,557.7Q71.3,556.2 68.4,555.0Q67.6,555.0 63.0,558.6Q59.1,562.1 53.3,561.5Q50.1,561.1 42.8,558.2L38.1,555.6L28.2,559.1Q17.6,553.5 8.5,556.0Q6.8,557.1 2.8,558.0L0.0,558.0L0.0,0.0L928.0,0.0L928.0,541.0Q924.5,539.6 917.3,538.5L911.1,537.8Q902.5,546.6 891.6,547.5Q889.4,547.1 882.1,546.9Q876.7,547.1 873.0,542.5Q873.0,538.3 857.5,539.6Q854.5,540.8 849.6,540.1Q843.8,538.7 832.8,545.0L828.6,548.7Q831.2,559.5 835.3,563.0Q835.9,563.0 842.1,568.5Q846.8,573.0 851.2,573.9Q858.3,573.7 871.0,577.0Q874.2,579.2 890.7,580.4Q894.0,579.9 897.4,582.9Q900.5,586.2 904.8,584.8Q905.7,583.9 906.6,585.3Q907.1,586.6 913.2,587.0Q916.9,587.0 918.5,586.0Q918.2,585.4 920.6,584.0Q922.9,583.1 925.6,585.5Q926.9,586.9 928.0,590.6L928.0,593.0L0.0,593.0Z" fill="#f7f3ea"/><path d="M96.7,585.4Q97.5,583.2 91.4,580.4Q90.3,580.8 86.0,584.0L82.6,587.0Q94.5,587.0 96.7,585.4Z" fill="#f7f3ea"/><path d="M120.0,586.5Q120.0,586.3 115.2,584.6Q112.6,583.8 107.5,581.6Q103.8,579.7 101.1,581.4Q100.2,582.4 101.5,584.0Q102.3,584.7 102.4,586.1Q102.1,586.6 110.9,587.0Q115.9,587.0 120.0,586.5Z" fill="#f7f3ea"/><path d="M857.6,584.5Q858.4,581.1 852.4,579.0Q850.1,579.0 845.7,576.0Q843.8,574.4 841.1,573.0Q838.9,573.0 833.1,566.4Q830.7,562.4 827.5,565.3Q826.2,567.4 828.1,574.6Q829.3,578.4 830.4,584.2L830.5,587.0L857.0,587.0Z" fill="#f7f3ea"/></svg>