<?xml version="1.0" encoding="UTF-8" standalone="no"?>
<svg xmlns="http://www.w3.org/2000/svg" viewBox="0 0 1024 1024" width="1024" height="1024">
<g fill="currentColor" stroke="none" fill-rule="evenodd">
<path d="M 623.50 942.45 C 664.75 942.23 700.35 941.79 702.61 941.48 C 708.82 940.63 710.52 938.07 711.91 927.50 C 712.57 922.55 712.87 913.77 712.59 908.00 C 711.65 888.51 711.88 770.72 712.86 769.74 C 713.90 768.70 731.43 769.09 732.51 770.18 C 732.88 770.55 733.31 784.27 733.47 800.68 C 733.63 817.08 734.07 831.25 734.46 832.17 C 734.84 833.09 735.91 834.14 736.83 834.51 C 737.75 834.88 747.27 835.08 758.00 834.96 C 768.73 834.84 790.43 834.69 806.23 834.62 L 834.95 834.50 L 837.73 831.73 L 840.50 828.95 L 840.19 769.73 C 840.02 737.15 840.27 709.95 840.74 709.27 C 841.39 708.33 850.55 708.02 878.85 707.98 C 902.79 707.93 916.93 707.53 918.42 706.85 C 922.88 704.82 923.20 701.10 923.84 643.00 C 924.17 613.02 924.45 574.73 924.47 557.91 C 924.50 524.34 924.29 522.99 918.71 521.05 C 916.94 520.43 906.24 520.02 892.69 520.04 C 880.04 520.06 869.28 519.68 868.80 519.20 C 868.31 518.71 868.05 514.31 868.21 509.41 L 868.50 500.50 L 893.50 500.00 C 920.38 499.46 922.24 499.11 924.13 494.19 C 925.57 490.45 925.23 441.66 923.12 350.50 C 922.34 316.91 922.00 314.18 918.28 312.37 C 917.30 311.89 900.08 311.50 880.00 311.50 C 859.92 311.50 843.00 311.17 842.39 310.78 C 841.60 310.26 841.22 293.70 841.07 253.42 C 840.96 222.28 840.50 195.81 840.04 194.61 C 838.07 189.42 840.03 189.57 779.26 189.84 L 737.02 190.03 L 735.60 192.27 C 734.48 194.03 734.11 200.82 733.81 224.80 C 733.51 250.09 733.20 255.27 731.97 256.10 C 730.14 257.35 715.29 256.69 713.91 255.31 C 713.24 254.64 712.72 227.84 712.39 177.98 C 712.09 131.44 711.52 100.97 710.93 99.86 C 708.69 95.68 712.24 95.85 594.32 94.42 C 563.97 94.05 536.65 94.06 533.59 94.45 C 528.98 95.02 527.68 95.64 525.93 98.10 C 523.88 100.98 523.82 102.01 523.92 134.42 C 524.03 172.46 524.99 169.04 514.17 168.93 C 502.66 168.81 503.70 172.03 503.41 135.67 C 503.27 118.25 502.87 102.69 502.52 101.10 C 502.17 99.51 501.01 97.42 499.95 96.45 C 498.13 94.81 494.52 94.74 441.75 95.34 C 347.34 96.43 322.85 97.09 319.79 98.63 C 317.96 99.57 316.91 101.04 316.54 103.25 C 316.24 105.04 315.88 140.10 315.74 181.17 C 315.61 222.23 315.14 256.20 314.69 256.65 C 313.40 257.93 297.27 257.66 295.94 256.34 C 295.13 255.53 294.61 246.00 294.24 224.97 C 293.72 196.08 293.61 194.66 291.60 192.45 L 289.50 190.14 L 242.00 190.85 C 199.52 191.48 194.16 191.74 191.25 193.30 C 189.46 194.26 187.93 195.83 187.84 196.78 C 187.76 197.72 187.64 224.05 187.59 255.29 C 187.51 304.58 187.30 312.20 186.00 313.07 C 185.05 313.70 171.40 313.96 149.00 313.78 C 129.47 313.63 112.56 313.85 111.40 314.27 C 106.62 316.02 106.32 320.07 105.44 395.00 C 105.13 422.23 104.66 455.03 104.40 467.90 C 103.93 491.92 104.48 497.13 107.80 499.75 C 108.97 500.68 115.93 501.00 134.57 501.00 L 159.77 501.00 L 160.37 503.25 C 160.70 504.49 160.98 508.94 160.99 513.14 L 161.00 520.78 L 136.25 521.21 C 107.78 521.72 106.51 522.01 105.44 528.34 C 104.49 533.98 106.42 682.48 107.62 696.32 C 108.07 701.43 108.80 703.81 110.52 705.82 L 112.83 708.50 L 149.86 708.53 C 170.23 708.54 187.25 708.92 187.69 709.36 C 188.14 709.80 188.62 735.89 188.77 767.33 C 188.92 798.77 189.28 825.97 189.57 827.76 C 190.55 833.84 189.84 833.76 242.25 834.36 L 290.00 834.90 L 292.69 832.59 L 295.39 830.27 L 295.44 799.89 L 295.50 769.50 L 305.75 769.22 L 316.00 768.93 L 316.15 782.22 C 316.24 789.52 316.35 826.55 316.41 864.50 C 316.47 902.45 316.90 934.71 317.36 936.20 C 319.24 942.29 314.81 941.99 409.10 942.42 C 465.83 942.69 496.21 942.47 498.13 941.81 C 503.30 940.00 503.46 938.99 504.00 904.21 C 504.42 876.98 504.73 871.78 506.00 870.98 C 508.33 869.51 521.56 869.77 522.84 871.31 C 523.57 872.19 523.90 882.84 523.84 904.12 C 523.75 939.68 524.04 941.43 530.25 942.44 C 532.04 942.72 534.62 943.15 536.00 943.39 C 537.38 943.63 540.75 943.60 543.50 943.34 C 546.25 943.08 582.25 942.68 623.50 942.45 Z"/>
<path d="M 357.06 931.93 C 342.52 931.45 330.07 930.86 329.40 930.60 C 326.51 929.49 326.13 911.38 325.37 736.86 L 324.72 588.22 L 327.04 586.98 C 330.30 585.23 434.45 586.05 436.23 587.83 C 436.93 588.53 437.72 593.73 438.12 600.27 C 439.07 615.79 438.69 697.64 437.67 698.67 C 436.71 699.63 356.15 700.41 351.25 699.51 C 348.06 698.92 348.00 698.80 348.00 693.58 C 348.00 690.52 348.53 687.81 349.25 687.23 C 350.29 686.38 389.62 685.03 414.25 685.01 C 418.67 685.00 420.46 684.54 422.01 682.99 C 423.97 681.03 424.01 680.08 423.49 647.24 C 422.94 612.38 422.44 603.39 421.04 602.53 C 420.59 602.25 403.37 601.83 382.77 601.59 C 342.08 601.12 341.32 601.21 339.74 606.50 C 338.93 609.24 338.80 686.49 339.36 847.00 C 339.48 879.73 339.95 908.20 340.42 910.29 C 340.91 912.46 342.18 914.59 343.39 915.28 C 344.93 916.16 352.91 916.40 373.00 916.18 C 388.12 916.01 415.94 916.36 434.82 916.96 C 471.55 918.12 475.90 917.79 478.23 913.72 C 479.22 911.99 479.39 902.89 479.00 872.50 C 478.73 851.05 478.50 819.10 478.50 801.50 L 478.50 769.50 L 485.50 769.50 L 492.50 769.50 L 493.33 776.50 C 494.67 787.78 493.54 929.86 492.09 931.31 C 490.61 932.79 396.96 933.22 357.06 931.93 Z"/>
<path d="M 540.00 932.10 L 535.50 931.50 L 534.66 923.50 C 533.64 913.82 533.43 780.30 534.42 773.68 L 535.12 769.00 L 541.99 769.00 C 548.07 769.00 548.94 769.24 549.52 771.07 C 549.88 772.21 549.89 791.90 549.54 814.82 C 548.00 915.45 547.93 913.88 553.63 916.05 C 556.40 917.10 677.59 917.18 682.39 916.13 C 683.99 915.78 686.11 914.38 687.12 913.00 C 688.85 910.63 688.98 905.36 689.53 813.00 C 690.22 697.31 690.13 612.98 689.31 607.68 C 688.26 600.86 688.85 600.95 646.69 601.24 C 605.57 601.52 606.67 601.36 605.59 607.42 C 605.30 609.03 605.01 626.34 604.93 645.88 L 604.80 681.42 L 607.01 683.21 C 609.03 684.84 612.09 685.01 641.86 685.12 C 659.81 685.18 675.85 685.52 677.50 685.87 C 680.40 686.49 680.51 686.72 680.80 692.73 C 681.08 698.65 680.98 698.97 678.55 699.58 C 677.16 699.93 657.13 700.05 634.06 699.86 C 601.27 699.58 591.82 699.21 590.80 698.20 C 589.78 697.17 589.52 689.42 589.59 662.20 C 589.68 626.56 590.69 588.97 591.58 588.08 C 593.49 586.18 699.06 585.12 702.00 586.98 C 704.68 588.67 703.21 927.12 700.51 929.82 C 698.34 931.99 554.52 934.03 540.00 932.10 Z"/>
<path d="M 372.00 906.74 C 362.38 906.32 353.54 905.76 352.38 905.50 C 349.74 904.91 349.00 901.61 349.00 890.35 C 349.00 882.17 349.07 881.92 351.67 880.94 C 353.34 880.30 371.01 879.93 398.74 879.96 C 426.95 879.98 443.83 879.63 445.03 878.98 C 448.72 877.01 449.11 871.77 448.11 837.78 C 447.59 820.03 446.87 804.74 446.50 803.82 C 445.54 801.37 441.27 800.22 435.00 800.73 C 426.95 801.39 407.89 799.42 406.82 797.82 C 405.73 796.18 406.19 770.47 407.33 769.33 C 408.55 768.11 465.17 767.74 467.00 768.94 C 468.02 769.61 468.69 772.42 469.10 777.71 C 469.93 788.50 469.40 896.53 468.49 901.72 C 467.97 904.73 467.14 906.16 465.63 906.70 C 462.84 907.69 394.48 907.72 372.00 906.74 Z"/>
<path d="M 584.17 907.07 C 564.23 906.56 561.70 906.31 560.53 904.70 C 558.45 901.87 557.65 870.81 558.36 820.50 C 558.71 795.75 559.28 773.78 559.64 771.68 L 560.28 767.87 L 590.56 768.18 C 607.21 768.36 621.12 768.78 621.46 769.13 C 622.32 769.99 622.47 794.99 621.63 797.61 C 620.82 800.13 614.86 800.99 598.10 801.01 C 585.21 801.03 583.46 801.45 582.12 804.85 C 581.48 806.46 580.96 820.92 580.78 841.71 C 580.52 873.43 580.63 876.05 582.29 877.71 C 583.94 879.37 587.24 879.52 627.30 879.72 C 651.07 879.83 672.32 880.31 674.51 880.77 L 678.50 881.61 L 678.46 892.79 C 678.45 898.94 677.99 904.41 677.45 904.95 C 676.24 906.16 638.30 908.05 620.00 907.81 C 612.58 907.71 596.45 907.38 584.17 907.07 Z"/>
<path d="M 358.17 870.09 C 353.57 869.63 350.50 868.83 349.94 867.93 C 348.62 865.85 348.80 858.60 350.20 857.20 C 351.08 856.32 359.99 856.00 384.05 856.00 C 418.39 856.00 422.35 855.57 423.39 851.69 C 424.15 848.84 423.95 828.38 423.12 824.51 C 422.14 819.90 418.91 818.96 402.50 818.52 C 394.51 818.30 387.13 817.86 386.10 817.53 C 385.04 817.19 383.97 815.62 383.62 813.85 C 382.82 809.87 382.83 774.22 383.63 771.25 C 384.15 769.31 384.90 769.00 389.08 769.00 C 392.85 769.00 394.16 769.43 394.96 770.93 C 395.56 772.04 396.00 779.79 396.00 788.98 C 396.00 810.95 394.85 809.86 418.01 809.84 C 432.60 809.83 435.50 810.07 436.88 811.45 C 438.30 812.87 438.50 816.50 438.47 840.52 C 438.44 858.95 438.08 868.32 437.34 869.06 C 436.04 870.36 369.54 871.23 358.17 870.09 Z"/>
<path d="M 596.00 870.17 L 591.50 869.50 L 590.70 861.00 C 589.72 850.47 590.20 812.46 591.33 811.33 C 591.79 810.87 600.21 810.27 610.05 810.00 C 625.46 809.57 628.18 809.25 629.72 807.72 C 631.27 806.16 631.54 803.60 631.81 787.91 C 632.17 767.42 631.92 767.94 640.80 768.96 L 645.50 769.50 L 645.50 792.83 C 645.50 814.77 645.38 816.25 643.56 817.58 C 642.08 818.66 637.95 819.00 626.36 819.00 C 610.20 819.00 606.57 819.76 605.60 823.37 C 605.28 824.54 605.02 831.68 605.01 839.23 C 605.00 852.69 605.05 852.99 607.44 854.55 C 609.55 855.93 614.07 856.15 640.19 856.14 C 656.86 856.12 672.52 856.43 675.00 856.81 C 679.37 857.48 679.50 857.60 679.40 861.00 C 679.19 868.19 679.00 868.77 676.75 869.39 C 673.52 870.28 601.37 870.98 596.00 870.17 Z"/>
<path d="M 505.57 858.68 C 503.89 857.44 503.74 854.37 503.34 813.43 C 502.90 767.18 502.62 761.52 500.69 760.27 C 500.04 759.85 466.20 759.27 425.50 759.00 C 384.80 758.73 350.71 758.11 349.75 757.64 C 348.29 756.93 348.00 755.40 348.00 748.45 L 348.00 740.12 L 352.25 739.51 C 354.59 739.18 388.60 738.82 427.84 738.70 L 499.18 738.50 L 501.01 736.24 C 502.72 734.12 502.85 731.03 502.94 688.87 C 502.99 664.06 503.27 643.36 503.57 642.88 C 503.87 642.40 508.35 642.00 513.52 642.00 C 521.46 642.00 523.08 642.27 523.87 643.75 C 525.11 646.07 525.00 641.55 525.00 691.00 C 525.00 734.44 525.03 735.03 527.11 737.11 C 529.21 739.21 529.38 739.22 569.05 738.49 C 610.71 737.72 676.81 738.65 679.05 740.03 C 680.51 740.93 681.59 751.50 680.63 755.35 C 680.17 757.19 679.11 757.94 676.26 758.48 C 674.19 758.87 641.47 759.14 603.54 759.09 C 565.61 759.03 533.07 759.27 531.23 759.62 C 525.17 760.75 525.26 760.04 524.72 811.16 C 524.45 836.82 523.93 858.31 523.56 858.91 C 522.57 860.50 507.81 860.31 505.57 858.68 Z"/>
<path d="M 358.50 846.13 L 349.50 845.50 L 348.84 840.50 C 348.47 837.75 348.14 821.00 348.09 803.29 C 348.00 772.05 348.06 771.04 350.00 770.00 C 351.16 769.38 356.30 769.05 362.25 769.22 L 372.50 769.50 L 373.00 796.22 C 373.64 830.20 371.65 827.31 394.78 828.00 C 403.97 828.27 412.06 828.86 412.75 829.31 C 414.53 830.46 414.44 843.39 412.64 844.88 C 411.04 846.22 372.35 847.11 358.50 846.13 Z"/>
<path d="M 622.00 846.12 L 615.50 845.50 L 615.21 837.40 L 614.92 829.29 L 621.11 828.65 C 624.51 828.29 632.51 827.99 638.90 827.98 C 645.28 827.98 651.00 827.64 651.60 827.23 C 654.55 825.27 655.00 821.66 655.00 800.21 C 655.00 788.15 655.29 776.19 655.64 773.64 L 656.27 769.00 L 667.58 769.00 C 675.52 769.00 679.12 769.37 679.69 770.25 C 680.54 771.56 680.19 845.13 679.33 846.00 C 678.60 846.74 629.57 846.84 622.00 846.12 Z"/>
<path d="M 206.83 824.26 C 203.37 824.04 200.68 823.32 199.91 822.39 C 198.96 821.24 198.61 810.19 198.44 775.69 C 198.32 750.84 198.51 725.77 198.86 720.00 L 199.50 709.50 L 204.63 709.20 C 213.55 708.68 213.04 705.74 212.98 756.93 C 212.95 782.30 213.33 802.74 213.86 804.13 C 215.86 809.39 216.44 809.50 242.61 809.50 C 264.60 809.50 267.09 809.33 268.71 807.72 C 270.32 806.12 270.55 803.12 271.00 778.52 C 271.32 761.04 271.89 750.71 272.57 750.03 C 274.02 748.58 296.48 747.72 307.00 748.70 L 315.50 749.50 L 315.80 753.65 L 316.10 757.79 L 310.30 758.33 C 307.11 758.63 301.39 758.89 297.59 758.92 C 289.45 758.97 287.46 759.48 286.38 761.79 C 285.94 762.73 285.52 770.48 285.46 779.00 C 285.14 820.27 285.07 821.79 283.43 823.43 C 282.05 824.80 277.54 824.98 247.18 824.81 C 228.11 824.71 209.95 824.46 206.83 824.26 Z"/>
<path d="M 744.39 823.58 C 743.26 820.64 743.15 817.83 743.08 790.75 C 742.98 756.28 744.45 759.00 725.95 759.00 L 712.90 759.00 L 713.20 753.75 L 713.50 748.50 L 734.16 748.23 C 751.96 748.00 755.04 748.18 756.41 749.55 C 757.78 750.93 758.00 754.77 758.00 777.96 C 758.00 802.88 758.14 804.95 759.91 807.14 L 761.83 809.50 L 786.16 809.50 C 812.04 809.50 814.44 809.11 815.52 804.72 C 815.82 803.50 816.16 781.35 816.28 755.50 L 816.50 708.50 L 821.50 708.24 C 829.28 707.84 829.41 708.06 830.15 723.21 C 830.91 738.83 830.34 818.52 829.44 821.64 C 829.05 823.01 827.72 824.01 825.79 824.39 C 824.12 824.73 805.24 825.00 783.84 825.00 C 751.13 825.00 744.85 824.77 744.39 823.58 Z"/>
<path d="M 227.53 799.13 C 224.95 798.58 224.43 797.88 223.67 793.99 C 222.58 788.47 222.21 713.22 223.25 710.66 C 223.97 708.91 226.09 708.84 268.92 709.16 C 293.62 709.35 314.21 709.87 314.67 710.33 C 315.13 710.79 315.66 716.84 315.86 723.77 C 316.18 734.99 316.02 736.51 314.42 737.68 C 313.05 738.68 307.00 739.00 289.31 739.00 C 267.67 739.00 265.86 739.14 264.08 740.92 C 261.58 743.42 261.09 748.47 260.75 775.50 C 260.59 787.60 260.11 798.06 259.67 798.75 C 258.83 800.09 233.39 800.38 227.53 799.13 Z"/>
<path d="M 770.84 799.33 C 768.84 798.80 768.27 792.33 767.61 763.21 C 767.27 747.96 766.85 743.42 765.62 741.54 L 764.06 739.16 L 739.58 738.83 C 724.95 738.63 714.69 738.10 714.09 737.49 C 712.72 736.12 711.72 721.77 712.52 714.87 L 713.17 709.23 L 725.37 708.53 C 742.83 707.52 804.04 707.64 805.08 708.68 C 806.16 709.76 806.50 776.04 805.48 788.74 L 804.74 797.98 L 801.12 798.98 C 797.62 799.96 774.21 800.22 770.84 799.33 Z"/>
<path d="M 354.00 729.09 L 348.50 728.50 L 348.21 719.23 C 348.00 712.35 348.26 709.86 349.21 709.55 C 352.14 708.61 488.03 708.06 490.46 708.99 C 492.93 709.92 493.00 710.21 493.00 719.31 L 493.00 728.68 L 466.75 729.34 C 436.13 730.11 362.00 729.94 354.00 729.09 Z"/>
<path d="M 551.04 729.28 C 541.07 729.05 536.34 728.56 535.81 727.72 C 534.39 725.49 534.86 710.36 536.39 709.09 C 537.92 707.82 549.31 707.74 628.63 708.41 C 661.64 708.68 676.41 709.15 677.92 709.96 C 679.91 711.02 680.05 711.77 679.79 719.81 L 679.50 728.50 L 669.50 729.06 C 658.61 729.67 574.35 729.83 551.04 729.28 Z"/>
<path d="M 455.80 700.22 C 451.47 699.98 449.99 699.50 449.63 698.20 C 449.13 696.40 447.78 647.89 447.46 620.00 C 446.98 579.18 447.16 582.16 445.00 580.00 C 443.08 578.08 441.57 577.99 408.25 577.86 C 389.14 577.78 362.02 577.44 348.00 577.11 L 322.50 576.50 L 321.64 572.50 C 321.17 570.30 320.14 566.32 319.35 563.66 C 318.30 560.16 318.20 558.46 318.98 557.52 C 319.70 556.66 324.01 556.02 331.78 555.62 C 344.89 554.96 399.59 554.56 440.21 554.82 C 466.75 555.00 466.94 555.02 468.12 557.23 C 469.71 560.19 469.45 698.10 467.85 699.42 C 467.01 700.12 461.06 700.52 455.80 700.22 Z"/>
<path d="M 147.15 698.94 C 131.56 698.51 120.39 697.79 119.78 697.18 C 119.22 696.62 118.10 688.36 117.30 678.83 C 115.30 655.12 114.86 535.75 116.77 533.83 C 118.88 531.71 149.67 530.93 218.79 531.22 C 272.21 531.45 283.22 531.73 283.93 532.88 C 285.80 535.92 287.41 669.57 285.64 674.75 C 284.95 676.74 284.19 677.00 278.97 677.00 C 274.37 677.00 272.87 676.62 272.16 675.25 C 271.65 674.29 270.94 653.02 270.58 628.00 C 269.83 576.64 269.17 553.31 268.39 550.75 C 268.10 549.79 267.11 548.60 266.18 548.10 C 265.26 547.61 235.48 547.06 200.00 546.88 C 150.23 546.63 135.00 546.84 133.29 547.79 C 131.93 548.55 130.82 550.43 130.39 552.71 C 130.01 554.74 130.10 571.95 130.60 590.95 C 131.09 609.95 131.49 638.19 131.50 653.71 C 131.50 679.45 131.66 682.08 133.29 683.71 C 134.97 685.40 139.72 685.51 217.15 685.64 C 262.29 685.72 302.58 686.10 306.67 686.48 C 315.03 687.27 316.10 688.34 315.26 695.11 L 314.81 698.72 L 306.66 699.35 C 296.00 700.18 181.02 699.89 147.15 698.94 Z"/>
<path d="M 478.95 698.44 C 477.95 697.24 477.82 681.68 478.31 623.50 C 479.00 543.00 479.34 548.22 473.26 545.91 C 471.87 545.38 460.03 545.20 445.66 545.48 C 396.99 546.46 324.48 546.99 322.29 546.39 C 319.94 545.75 318.32 542.01 317.80 536.01 L 317.50 532.52 L 324.00 531.63 C 331.78 530.55 485.31 530.25 489.23 531.30 C 491.05 531.78 492.23 532.95 492.73 534.77 C 493.70 538.21 493.75 697.58 492.79 698.54 C 492.40 698.93 489.41 699.41 486.14 699.60 C 481.74 699.86 479.88 699.56 478.95 698.44 Z"/>
<path d="M 539.34 699.29 L 535.18 698.89 L 534.57 693.20 C 533.56 683.93 533.25 582.37 534.15 558.50 C 535.09 533.86 535.27 532.50 537.74 531.53 C 540.35 530.50 684.60 529.75 698.00 530.69 L 709.50 531.50 L 709.83 535.00 C 710.02 536.92 709.68 540.12 709.09 542.10 L 708.01 545.71 L 700.75 546.21 C 696.76 546.49 690.58 546.64 687.00 546.54 C 665.80 545.93 553.22 545.86 551.82 546.45 C 548.98 547.65 548.71 556.95 549.42 628.37 C 549.79 665.84 549.73 697.03 549.29 697.67 C 548.24 699.19 544.56 699.78 539.34 699.29 Z"/>
<path d="M 560.27 699.21 C 558.76 698.23 557.30 593.95 558.46 570.81 L 559.20 556.11 L 562.35 555.40 C 566.57 554.44 703.86 554.49 706.86 555.45 C 709.01 556.14 709.16 556.58 708.53 560.35 C 708.14 562.63 707.49 566.86 707.08 569.75 C 706.67 572.64 706.00 575.34 705.58 575.75 C 704.91 576.42 646.14 577.66 602.86 577.90 C 588.08 577.99 585.96 578.21 583.87 579.90 L 581.52 581.81 L 580.81 633.15 C 580.41 661.39 579.93 687.88 579.73 692.00 L 579.37 699.50 L 570.43 699.75 C 565.52 699.89 560.95 699.65 560.27 699.21 Z"/>
<path d="M 716.50 698.19 C 713.73 697.54 713.48 697.11 713.19 692.61 C 713.02 689.92 713.30 687.30 713.82 686.78 C 715.51 685.09 723.69 684.93 808.22 684.95 C 857.53 684.97 892.94 684.59 894.38 684.05 C 895.73 683.53 897.12 682.21 897.47 681.10 C 897.82 679.99 898.36 654.20 898.67 623.79 C 898.98 593.38 899.29 564.12 899.35 558.77 C 899.54 544.44 900.32 544.90 875.92 544.91 C 865.24 544.91 835.58 545.21 810.00 545.58 C 758.16 546.33 760.50 545.97 759.56 553.37 C 759.27 555.64 758.90 583.74 758.72 615.81 C 758.46 665.49 758.19 674.27 756.95 675.11 C 755.04 676.40 745.27 675.67 743.71 674.11 C 742.78 673.18 742.51 657.03 742.55 605.20 C 742.58 567.96 742.91 536.31 743.29 534.86 C 743.67 533.41 744.77 531.91 745.74 531.53 C 748.41 530.49 877.18 529.76 895.97 530.69 L 912.45 531.50 L 913.35 536.00 C 913.85 538.48 914.23 565.48 914.21 596.00 C 914.17 648.59 912.98 686.86 911.18 693.50 C 910.39 696.40 910.11 696.52 902.93 697.22 C 892.95 698.18 720.31 699.08 716.50 698.19 Z"/>
<path d="M 195.75 676.31 C 194.21 675.91 193.97 674.30 193.78 663.18 C 193.32 636.25 193.96 614.64 195.25 613.82 C 196.96 612.74 208.17 612.82 209.92 613.93 C 210.96 614.59 211.51 618.08 211.96 626.91 C 212.44 636.53 212.93 639.36 214.32 640.75 C 215.86 642.29 218.47 642.52 236.03 642.64 C 247.00 642.72 257.05 643.05 258.35 643.37 C 260.26 643.85 260.84 644.82 261.32 648.34 C 261.91 652.63 261.38 667.31 260.40 673.75 L 259.91 677.00 L 228.70 676.88 C 211.54 676.82 196.71 676.56 195.75 676.31 Z"/>
<path d="M 297.29 676.20 C 295.78 675.24 295.11 651.42 294.56 579.50 C 294.34 550.90 293.83 526.68 293.44 525.67 C 293.05 524.67 291.63 523.43 290.30 522.92 C 288.96 522.42 272.87 522.00 254.54 522.00 C 225.07 522.00 221.14 521.82 220.61 520.42 C 220.27 519.55 220.00 514.85 220.00 509.99 C 220.00 502.33 220.24 501.06 221.80 500.56 C 222.80 500.25 235.96 499.97 251.05 499.96 C 285.44 499.92 290.63 499.49 292.55 496.57 C 293.75 494.74 294.02 482.55 294.24 420.28 C 294.38 379.52 294.87 345.79 295.33 345.33 C 296.32 344.35 313.53 344.20 314.50 345.17 C 314.87 345.54 315.04 363.09 314.87 384.17 C 314.43 440.48 314.40 439.86 317.33 442.78 C 319.73 445.19 319.75 445.32 318.36 451.26 C 317.59 454.57 317.15 457.49 317.40 457.73 C 318.42 458.76 321.20 452.76 321.20 449.52 C 321.20 447.58 321.50 445.81 321.86 445.59 C 322.54 445.17 357.17 444.36 412.00 443.49 C 446.91 442.93 445.41 443.36 446.39 433.72 C 446.69 430.85 447.18 406.90 447.49 380.50 C 447.79 354.10 448.32 329.91 448.65 326.75 C 449.18 321.77 449.54 320.99 451.38 320.94 C 452.55 320.91 456.25 320.66 459.61 320.38 C 469.44 319.56 468.96 317.83 469.25 354.82 C 469.77 420.76 469.31 464.09 468.08 465.32 C 466.69 466.71 330.73 467.05 322.72 465.68 C 320.00 465.22 318.01 464.36 318.09 463.68 C 318.86 457.47 317.51 458.80 312.16 469.50 C 311.03 471.78 308.41 483.23 307.45 490.15 C 306.92 493.98 307.15 495.15 308.76 496.76 C 310.59 498.59 312.66 498.74 342.02 499.21 C 378.70 499.80 376.00 498.81 376.00 511.72 C 376.00 519.74 375.91 520.09 373.43 521.02 C 372.02 521.56 358.25 522.05 342.68 522.12 C 327.18 522.18 313.17 522.52 311.54 522.87 C 309.48 523.31 308.41 524.26 308.00 526.00 C 306.95 530.45 310.67 549.00 313.92 555.50 C 315.58 558.80 317.64 565.05 318.50 569.39 C 320.07 577.27 320.07 577.30 317.79 579.73 L 315.50 582.17 L 315.88 628.07 C 316.18 663.87 315.99 674.31 315.01 675.49 C 314.09 676.60 311.73 677.00 306.13 676.98 C 301.93 676.98 297.95 676.62 297.29 676.20 Z"/>
<path d="M 357.00 676.25 C 354.52 676.10 351.49 675.75 350.25 675.47 L 348.00 674.96 L 348.06 647.23 C 348.09 631.98 348.43 617.70 348.82 615.50 L 349.53 611.50 L 370.02 610.69 C 390.92 609.87 409.52 610.47 412.08 612.05 C 413.21 612.74 413.68 618.09 414.38 637.88 C 414.88 652.16 414.88 665.33 414.38 668.66 L 413.50 674.49 L 408.00 675.17 C 401.99 675.90 364.24 676.70 357.00 676.25 Z"/>
<path d="M 143.17 675.13 C 142.26 674.55 141.57 670.09 140.95 660.76 C 139.79 643.34 139.26 562.17 140.28 559.36 C 141.03 557.32 141.96 557.17 158.78 556.37 C 188.19 554.97 257.67 555.27 259.21 556.81 C 260.18 557.78 260.58 564.66 260.82 584.87 C 261.10 608.19 260.94 611.80 259.58 612.93 C 257.37 614.77 247.31 613.45 246.10 611.18 C 245.61 610.25 244.88 603.55 244.47 596.27 C 244.03 588.12 243.25 582.36 242.45 581.27 C 241.26 579.64 238.37 579.49 205.33 579.41 C 185.62 579.37 168.03 579.74 166.24 580.24 C 164.45 580.75 162.52 582.03 161.95 583.10 C 161.26 584.38 161.00 600.07 161.18 629.27 C 161.33 653.60 161.10 674.06 160.67 674.75 C 159.77 676.19 145.33 676.50 143.17 675.13 Z"/>
<path d="M 171.34 674.80 C 170.88 674.08 170.35 655.02 170.17 632.44 C 169.87 596.56 170.02 591.23 171.36 590.12 C 172.52 589.16 180.17 588.85 203.03 588.84 C 219.60 588.84 233.47 589.13 233.83 589.50 C 234.20 589.86 234.72 596.64 235.00 604.55 C 235.63 622.62 235.29 622.17 249.11 623.01 C 257.45 623.51 259.49 623.95 260.63 625.51 C 261.90 627.25 261.66 630.58 260.14 632.17 C 259.52 632.81 243.63 633.34 231.44 633.11 C 222.30 632.94 221.93 632.43 221.09 618.67 C 220.15 603.31 220.44 603.60 205.21 603.17 C 197.33 602.95 192.20 603.28 189.51 604.17 C 185.74 605.43 185.49 605.77 184.80 610.50 C 184.41 613.25 184.23 626.52 184.40 640.00 C 184.58 653.48 184.45 666.98 184.11 670.00 L 183.50 675.50 L 177.84 675.80 C 174.02 676.00 171.90 675.67 171.34 674.80 Z"/>
<path d="M 622.00 675.32 C 620.08 675.12 617.49 674.74 616.25 674.46 L 614.00 673.96 L 614.00 644.05 C 614.00 619.19 614.25 613.90 615.46 612.69 C 618.53 609.61 676.36 609.32 678.89 612.37 C 679.41 612.99 680.16 627.06 680.56 643.64 C 681.28 673.49 681.27 673.79 679.21 674.89 C 677.27 675.93 631.27 676.27 622.00 675.32 Z"/>
<path d="M 716.22 675.33 L 712.93 674.87 L 713.00 631.18 C 713.04 607.16 713.06 585.83 713.04 583.79 C 713.01 581.30 712.28 579.41 710.83 578.06 L 708.67 576.04 L 710.83 567.27 C 712.02 562.45 713.84 557.36 714.87 555.96 C 715.91 554.56 717.07 551.41 717.46 548.96 C 717.85 546.51 719.00 541.12 720.02 537.00 C 722.11 528.50 721.72 524.46 718.63 522.78 C 717.18 522.00 706.38 521.52 685.06 521.29 C 667.77 521.10 653.37 520.70 653.06 520.40 C 651.98 519.32 651.85 504.46 652.89 501.75 L 653.95 499.00 L 684.23 498.88 C 700.88 498.82 715.85 498.48 717.50 498.13 C 720.15 497.57 720.54 497.02 720.83 493.50 C 721.32 487.38 718.02 472.17 714.81 465.82 C 713.06 462.35 711.49 457.03 710.78 452.12 C 709.69 444.65 709.74 443.94 711.55 441.94 C 713.44 439.86 713.49 438.23 713.13 392.41 C 712.71 337.94 711.49 343.56 723.77 343.61 C 728.16 343.62 731.52 344.12 732.27 344.87 C 733.21 345.81 733.62 363.47 734.00 420.97 C 734.27 462.14 734.73 496.04 735.00 496.28 C 737.69 498.69 741.94 499.00 772.35 499.00 C 790.22 499.00 805.55 499.27 806.42 499.61 C 807.71 500.10 808.00 502.01 808.00 510.09 C 808.00 519.52 807.90 519.98 805.75 520.42 C 804.51 520.67 788.67 521.13 770.54 521.44 C 742.72 521.90 737.34 522.23 736.04 523.53 C 734.69 524.88 734.42 534.31 733.89 599.10 C 733.49 647.35 732.92 673.48 732.25 674.15 C 731.10 675.30 721.19 676.03 716.22 675.33 Z"/>
<path d="M 768.74 672.25 C 768.47 670.19 768.31 662.89 768.38 656.03 L 768.50 643.56 L 773.00 642.76 C 775.48 642.32 785.47 641.85 795.22 641.73 C 810.49 641.53 813.17 641.26 814.66 639.77 C 816.02 638.41 816.54 635.45 817.07 626.13 C 817.44 619.57 818.06 613.72 818.43 613.11 C 818.83 612.47 822.03 612.00 825.94 612.00 C 831.06 612.00 833.10 612.41 834.13 613.65 C 835.23 614.99 835.46 620.99 835.30 644.38 C 835.12 670.72 834.94 673.57 833.36 674.73 C 832.04 675.69 824.11 676.00 800.42 676.00 L 769.22 676.00 L 768.74 672.25 Z"/>
<path d="M 844.89 664.25 C 844.83 657.79 844.87 642.15 844.98 629.49 C 845.23 601.72 845.88 603.11 832.34 602.37 C 821.22 601.75 813.67 602.64 810.90 604.88 C 809.06 606.37 808.59 608.34 807.60 618.75 C 806.97 625.42 806.08 631.25 805.64 631.69 C 805.19 632.14 796.91 632.40 787.24 632.28 C 768.19 632.04 767.77 631.91 768.24 626.50 L 768.50 623.50 L 779.00 622.67 C 793.97 621.49 794.00 621.45 794.00 604.52 C 794.00 595.19 794.38 590.86 795.33 589.57 C 796.56 587.88 798.73 587.77 826.31 587.90 C 842.63 587.99 856.60 588.29 857.37 588.59 C 859.24 589.30 859.71 605.53 858.99 644.30 C 858.54 669.04 858.20 674.26 856.97 675.04 C 856.16 675.55 853.14 675.98 850.25 675.98 L 845.00 676.00 L 844.89 664.25 Z"/>
<path d="M 868.47 673.95 C 868.09 673.34 867.94 652.35 868.14 627.33 C 868.50 582.43 868.47 581.80 866.45 580.16 C 864.61 578.68 860.65 578.52 828.95 578.66 C 786.30 578.85 789.78 578.71 787.57 580.33 C 786.02 581.46 785.64 583.85 785.00 596.44 C 784.45 607.26 783.88 611.46 782.88 612.10 C 781.21 613.15 770.70 613.05 768.94 611.96 C 767.35 610.98 768.27 557.33 769.90 555.70 C 771.20 554.40 863.00 553.55 878.50 554.69 L 889.50 555.50 L 889.23 608.00 C 889.08 636.88 888.63 663.65 888.23 667.50 L 887.50 674.50 L 878.33 674.79 C 872.35 674.97 868.92 674.68 868.47 673.95 Z"/>
<path d="M 504.68 631.25 C 503.76 629.67 502.91 617.21 503.55 614.67 C 504.21 612.01 504.27 612.00 513.57 612.00 C 521.47 612.00 523.07 612.27 523.83 613.75 C 524.67 615.39 524.42 627.98 523.48 630.75 C 523.02 632.13 505.47 632.60 504.68 631.25 Z"/>
<path d="M 504.31 600.75 C 503.86 600.06 503.27 583.05 503.00 562.95 C 502.55 530.17 502.32 526.13 500.73 523.70 L 498.95 521.00 L 458.08 521.00 C 421.74 521.00 417.15 520.82 416.61 519.42 C 415.75 517.18 415.88 502.74 416.77 501.33 C 417.32 500.48 428.56 500.07 458.21 499.83 C 486.67 499.60 499.24 499.16 500.03 498.37 C 502.44 495.96 502.97 488.29 503.00 455.31 C 503.02 425.43 503.23 420.92 504.61 419.53 C 505.88 418.26 507.91 418.02 514.61 418.31 C 519.23 418.52 523.29 418.96 523.62 419.29 C 523.96 419.62 524.40 436.01 524.60 455.70 C 524.81 475.39 525.23 492.98 525.54 494.80 C 525.95 497.18 526.86 498.38 528.80 499.14 C 530.59 499.83 541.83 500.00 562.00 499.64 C 578.77 499.34 596.55 499.41 601.50 499.80 L 610.50 500.50 L 611.00 506.50 C 611.27 509.80 611.34 514.39 611.15 516.70 L 610.81 520.90 L 570.65 521.20 C 541.06 521.42 529.93 521.83 528.34 522.74 C 525.28 524.49 525.05 527.06 524.48 565.86 C 524.21 584.76 523.73 600.62 523.43 601.11 C 522.55 602.54 505.26 602.21 504.31 600.75 Z"/>
<path d="M 175.50 521.14 L 171.50 520.50 L 171.24 512.00 C 171.10 507.32 171.42 502.82 171.96 502.00 C 172.74 500.78 176.24 500.44 190.58 500.17 C 201.37 499.96 208.62 500.22 209.22 500.82 C 210.24 501.84 210.40 519.93 209.40 520.93 C 208.60 521.74 180.30 521.91 175.50 521.14 Z"/>
<path d="M 386.44 519.71 C 386.15 518.96 386.05 514.33 386.21 509.42 L 386.50 500.50 L 395.60 500.21 C 402.55 500.00 404.98 500.27 405.89 501.37 C 406.67 502.30 406.98 505.87 406.79 511.65 L 406.50 520.50 L 396.73 520.79 C 389.20 521.01 386.85 520.76 386.44 519.71 Z"/>
<path d="M 621.48 518.78 C 621.17 517.52 621.04 512.89 621.20 508.50 L 621.50 500.50 L 625.96 499.90 C 628.42 499.58 632.92 499.58 635.96 499.90 L 641.50 500.50 L 641.50 510.50 L 641.50 520.50 L 631.78 520.79 C 622.37 521.06 622.04 521.00 621.48 518.78 Z"/>
<path d="M 819.05 519.56 C 818.10 518.41 817.90 515.67 818.30 509.40 C 818.61 504.68 819.15 500.52 819.51 500.16 C 819.87 499.79 827.99 499.55 837.56 499.60 C 850.71 499.68 855.35 500.04 856.60 501.08 C 857.98 502.23 858.17 503.83 857.73 510.79 C 857.45 515.37 856.90 519.43 856.53 519.81 C 856.15 520.19 847.85 520.64 838.09 520.81 C 822.95 521.08 820.16 520.89 819.05 519.56 Z"/>
<path d="M 150.33 491.13 C 132.09 490.79 116.82 490.15 116.39 489.72 C 115.96 489.30 115.33 483.67 114.98 477.22 C 114.07 460.55 114.86 364.74 116.01 351.00 C 116.54 344.68 116.98 336.52 116.99 332.87 C 117.00 328.05 117.43 325.89 118.59 324.93 C 119.78 323.94 127.63 323.43 149.84 322.88 C 186.02 322.00 307.34 321.99 311.50 322.87 C 314.31 323.47 314.52 323.84 314.80 328.63 L 315.10 333.74 L 309.30 334.36 C 306.11 334.70 266.60 335.23 221.50 335.53 C 176.40 335.84 138.04 336.31 136.25 336.59 C 130.40 337.49 130.33 338.07 130.22 383.50 C 130.16 406.05 129.85 432.15 129.52 441.50 C 129.19 450.85 129.22 461.79 129.59 465.81 C 130.61 477.11 127.84 476.47 174.40 476.17 C 224.21 475.84 264.03 475.09 266.16 474.44 C 267.07 474.15 268.11 473.15 268.48 472.21 C 268.84 471.27 269.37 442.82 269.65 409.00 C 269.93 375.18 270.32 346.98 270.51 346.35 C 271.00 344.73 280.39 343.60 282.77 344.88 C 284.52 345.81 284.78 347.52 285.43 362.56 C 286.79 394.03 285.63 485.77 283.83 489.25 C 283.00 490.86 280.50 491.00 253.21 491.00 C 236.87 491.00 214.50 491.18 203.50 491.39 C 192.50 491.60 168.57 491.48 150.33 491.13 Z"/>
<path d="M 327.71 490.08 C 322.03 489.71 318.63 489.03 318.10 488.17 C 317.31 486.88 318.14 480.36 319.56 476.68 C 320.24 474.93 323.59 474.87 397.68 475.09 C 469.44 475.31 475.22 475.21 476.80 473.63 C 478.68 471.75 478.81 461.75 478.09 370.50 C 477.91 346.85 477.81 326.04 477.88 324.25 L 478.00 321.00 L 483.75 321.02 C 486.91 321.02 490.14 321.44 490.92 321.93 C 493.20 323.37 493.92 340.66 494.04 396.63 C 494.16 455.81 493.32 485.18 491.44 487.76 C 490.33 489.27 487.63 489.57 470.83 490.07 C 445.50 490.83 339.00 490.84 327.71 490.08 Z"/>
<path d="M 594.92 490.63 C 594.69 490.43 581.48 489.99 565.57 489.65 C 543.79 489.19 536.45 488.73 535.84 487.77 C 535.39 487.07 534.99 482.90 534.94 478.50 C 534.89 474.10 534.61 469.60 534.33 468.50 C 533.65 465.86 533.66 351.02 534.34 335.26 C 534.63 328.53 535.15 322.57 535.49 322.01 C 535.84 321.46 539.19 321.00 542.95 321.00 C 551.25 321.00 550.92 320.20 550.49 339.00 C 550.33 346.43 549.87 378.50 549.49 410.28 C 548.94 454.91 549.06 468.73 550.01 471.01 C 551.81 475.38 555.75 476.05 575.99 475.46 C 604.31 474.63 706.81 474.26 707.98 474.99 C 709.11 475.69 711.69 487.64 710.89 488.45 C 709.52 489.81 596.39 491.94 594.92 490.63 Z"/>
<path d="M 782.79 490.09 C 754.84 489.62 745.77 489.17 744.79 488.19 C 743.85 487.25 743.34 480.74 742.93 464.20 C 742.19 435.08 742.19 372.03 742.93 356.50 L 743.50 344.50 L 749.90 344.20 C 753.42 344.03 756.68 344.28 757.15 344.75 C 757.61 345.21 758.24 372.57 758.55 405.55 C 758.85 438.52 759.32 466.92 759.58 468.65 C 759.84 470.38 760.60 472.26 761.28 472.81 C 762.07 473.47 785.92 473.95 828.60 474.16 C 881.73 474.43 895.00 474.25 896.26 473.20 C 899.58 470.44 900.26 462.93 899.48 437.68 C 899.07 424.38 898.68 396.75 898.62 376.28 C 898.50 340.45 898.43 338.98 896.50 337.12 C 894.56 335.24 891.87 335.17 804.69 334.73 C 743.84 334.43 714.55 333.95 713.84 333.24 C 713.19 332.59 713.05 330.27 713.48 327.13 C 714.02 323.19 714.65 321.92 716.34 321.35 C 718.86 320.50 900.72 320.72 906.19 321.58 C 908.22 321.90 910.33 322.69 910.87 323.35 C 913.81 326.88 915.96 482.37 913.14 486.82 C 911.32 489.68 850.31 491.21 782.79 490.09 Z"/>
<path d="M 158.33 467.05 C 148.89 466.75 140.79 466.13 140.33 465.67 C 138.10 463.44 139.27 349.33 141.55 347.05 C 142.12 346.48 145.96 345.72 150.07 345.38 C 156.33 344.85 157.77 345.01 158.92 346.41 C 160.05 347.77 160.29 356.27 160.25 393.28 C 160.21 430.73 160.44 438.89 161.62 440.75 L 163.05 443.00 L 200.27 442.99 C 220.75 442.98 238.49 442.71 239.71 442.38 C 242.80 441.55 243.77 437.55 244.35 423.16 C 244.63 416.37 245.00 410.69 245.18 410.54 C 247.00 409.01 250.67 408.00 254.40 408.00 C 257.94 408.00 259.17 408.45 260.02 410.04 C 261.17 412.18 260.68 461.07 259.48 464.19 C 259.14 465.08 257.05 466.08 254.69 466.50 C 249.50 467.41 181.63 467.80 158.33 467.05 Z"/>
<path d="M 574.50 466.04 L 559.50 465.50 L 558.87 455.00 C 558.27 445.07 558.65 370.47 559.47 337.11 C 559.75 325.74 560.19 321.49 561.17 320.87 C 563.02 319.70 578.75 319.78 579.48 320.97 C 579.81 321.50 580.30 344.34 580.56 371.72 C 581.10 427.66 581.58 439.05 583.51 441.68 C 584.75 443.37 587.29 443.51 620.17 443.70 C 647.71 443.86 704.82 444.70 705.64 444.96 C 706.85 445.33 709.80 459.60 709.26 462.44 C 708.85 464.59 708.19 464.77 698.66 465.43 C 685.84 466.31 594.51 466.76 574.50 466.04 Z"/>
<path d="M 781.33 465.08 C 775.74 464.76 770.83 464.17 770.43 463.76 C 768.93 462.26 768.29 453.28 768.08 431.06 L 767.88 408.29 L 774.32 407.63 C 784.94 406.54 784.97 406.59 784.99 424.62 C 785.00 435.32 785.24 437.04 787.06 439.35 L 789.12 441.96 L 826.50 441.94 C 861.48 441.91 864.04 441.79 866.20 440.04 L 868.50 438.18 L 868.65 392.56 C 868.74 367.48 869.08 346.23 869.42 345.35 C 869.93 344.01 871.39 343.82 878.50 344.20 C 883.16 344.44 887.18 344.85 887.44 345.10 C 889.89 347.56 891.14 459.08 888.75 462.30 C 887.73 463.66 884.52 464.16 871.50 464.98 C 854.86 466.03 799.01 466.09 781.33 465.08 Z"/>
<path d="M 338.83 435.00 C 331.86 434.73 325.79 434.12 325.33 433.67 C 324.87 433.21 324.51 377.18 324.52 309.17 C 324.54 189.77 325.35 120.80 326.82 112.54 C 327.71 107.50 328.67 107.23 346.00 107.09 C 353.43 107.03 368.24 106.52 378.91 105.96 C 402.74 104.71 490.53 104.20 491.63 105.30 C 493.15 106.81 493.91 132.61 493.91 182.00 C 493.90 245.25 492.92 278.82 491.03 279.98 C 488.46 281.57 467.43 282.18 408.91 282.34 C 360.54 282.47 350.02 282.26 348.66 281.13 C 346.61 279.43 346.33 269.80 348.29 268.17 C 349.16 267.45 369.47 266.90 410.54 266.50 C 444.07 266.17 472.50 265.69 473.72 265.44 C 474.94 265.18 476.38 264.16 476.91 263.17 C 477.47 262.11 478.15 237.21 478.54 202.93 C 478.90 170.80 479.25 143.15 479.30 141.50 C 479.36 139.85 479.31 134.79 479.20 130.25 C 479.03 123.31 478.66 121.66 476.86 119.86 C 474.77 117.77 474.23 117.73 456.61 118.38 C 446.65 118.74 417.12 119.30 391.00 119.62 C 337.99 120.27 340.49 119.89 339.59 127.37 C 338.83 133.61 337.67 285.95 337.89 349.00 C 338.09 404.39 338.44 415.47 340.06 418.10 C 340.77 419.24 346.94 419.54 373.83 419.74 C 391.93 419.87 410.03 419.64 414.05 419.24 C 420.94 418.54 421.40 418.34 422.10 415.73 C 422.51 414.20 422.98 396.26 423.14 375.87 L 423.44 338.78 L 421.11 336.89 C 418.93 335.12 416.59 335.00 384.14 334.98 C 365.09 334.98 348.91 334.60 348.20 334.14 C 347.30 333.57 346.99 331.46 347.20 327.41 L 347.50 321.50 L 385.60 321.00 C 406.56 320.73 426.79 320.73 430.56 321.00 L 437.43 321.50 L 438.25 325.00 C 439.62 330.83 438.10 431.26 436.62 432.77 C 435.74 433.68 429.82 434.19 415.94 434.55 C 384.51 435.35 352.43 435.54 338.83 435.00 Z"/>
<path d="M 619.11 434.84 C 604.59 434.44 592.32 433.72 591.84 433.24 C 589.62 431.02 588.87 323.73 591.05 321.55 C 592.26 320.34 659.51 319.50 672.75 320.54 L 681.00 321.18 L 681.00 327.05 C 681.00 331.84 680.64 333.12 679.07 333.96 C 677.86 334.61 665.60 335.01 646.32 335.02 C 629.37 335.04 613.75 335.45 611.61 335.95 C 604.19 337.67 604.51 335.74 604.85 376.65 C 605.02 396.79 605.54 414.30 606.02 415.55 C 606.50 416.80 607.73 418.10 608.75 418.42 C 609.78 418.75 627.56 419.12 648.27 419.26 C 683.15 419.48 686.06 419.37 687.70 417.73 C 689.32 416.11 689.54 412.01 690.28 370.23 C 690.73 345.08 690.81 304.93 690.47 281.00 C 690.13 257.07 689.91 213.65 689.98 184.50 C 690.05 155.35 689.79 129.56 689.41 127.18 C 688.97 124.42 687.96 122.36 686.61 121.48 C 683.62 119.52 556.81 118.41 553.00 120.31 C 547.73 122.94 547.80 121.55 549.03 194.75 C 550.10 258.85 550.26 262.59 552.03 264.12 C 553.69 265.56 560.15 265.75 613.20 265.88 C 645.81 265.96 674.39 266.29 676.69 266.62 C 680.52 267.16 680.92 267.49 681.19 270.36 C 681.36 272.08 681.35 275.13 681.16 277.12 C 680.82 280.68 680.72 280.75 675.66 281.36 C 668.93 282.17 547.06 282.17 540.33 281.36 L 535.17 280.74 L 534.54 271.62 C 533.57 257.36 533.41 149.81 534.33 127.00 C 534.78 115.72 535.60 106.05 536.13 105.50 C 536.77 104.85 562.39 104.54 609.42 104.61 C 676.70 104.70 695.54 105.12 699.38 106.59 C 702.72 107.88 702.85 113.10 703.60 284.23 L 704.25 432.95 L 701.81 433.88 C 698.43 435.17 650.95 435.72 619.11 434.84 Z"/>
<path d="M 171.00 433.08 C 169.72 432.22 169.45 426.29 169.19 392.16 C 169.02 370.21 169.27 350.74 169.75 348.88 C 170.60 345.59 170.77 345.49 176.32 345.20 C 181.66 344.92 182.07 345.06 183.01 347.52 C 183.59 349.06 184.00 363.60 184.00 382.91 C 184.00 413.40 184.13 415.81 185.83 417.35 C 187.32 418.69 189.90 419.00 199.70 419.00 C 206.33 419.00 213.21 418.71 214.99 418.35 C 219.52 417.45 221.33 412.87 220.62 404.10 C 219.89 395.15 221.27 390.24 224.79 389.26 C 228.41 388.25 258.00 388.59 259.04 389.66 C 259.49 390.12 260.15 391.67 260.50 393.11 C 261.63 397.69 259.10 399.00 249.06 399.00 C 241.86 399.00 239.82 399.35 237.79 400.95 C 235.42 402.81 235.29 403.52 234.70 417.10 C 234.36 425.25 233.63 431.77 233.00 432.40 C 231.54 433.87 173.13 434.50 171.00 433.08 Z"/>
<path d="M 800.01 432.16 C 795.71 431.53 795.49 431.33 794.82 427.50 C 794.43 425.30 794.09 418.45 794.06 412.27 C 793.99 398.45 794.01 398.47 779.17 397.44 C 771.87 396.94 768.68 396.33 768.31 395.36 C 767.37 392.91 768.96 389.15 771.25 388.41 C 775.00 387.20 805.05 387.65 806.34 388.94 C 806.99 389.59 807.70 395.18 808.01 402.14 C 808.72 418.28 808.39 418.00 826.92 418.00 C 837.17 418.00 841.11 417.64 842.56 416.58 C 844.40 415.24 844.53 413.34 845.00 379.88 L 845.50 344.59 L 847.87 344.03 C 849.18 343.72 851.99 343.64 854.13 343.84 C 857.33 344.15 858.15 344.68 858.76 346.86 C 859.17 348.31 859.50 367.59 859.50 389.70 C 859.50 420.94 859.22 430.18 858.23 431.17 C 857.27 432.13 850.44 432.49 830.73 432.63 C 816.30 432.73 802.48 432.52 800.01 432.16 Z"/>
<path d="M 352.82 410.37 C 347.82 409.46 347.74 408.97 347.22 376.58 L 346.73 346.22 L 349.02 344.99 C 352.13 343.33 411.42 344.02 413.13 345.73 C 414.36 346.96 415.03 377.11 414.28 397.64 L 413.88 408.79 L 411.19 409.37 C 407.68 410.12 356.31 411.00 352.82 410.37 Z"/>
<path d="M 615.72 409.30 C 613.72 405.84 612.94 350.84 614.85 347.29 C 616.23 344.70 624.66 344.01 655.06 344.01 C 672.43 344.00 678.04 344.31 679.46 345.35 C 681.21 346.63 681.28 348.33 680.75 376.96 C 680.36 397.58 679.82 407.58 679.04 408.36 C 677.71 409.70 616.48 410.61 615.72 409.30 Z"/>
<path d="M 193.62 407.46 C 193.28 406.57 193.00 392.91 193.00 377.11 C 193.00 353.89 193.27 348.01 194.42 346.44 C 195.76 344.61 197.49 344.48 226.17 344.20 C 249.86 343.97 256.88 344.19 258.24 345.20 C 260.77 347.09 262.00 374.46 259.69 377.50 C 258.25 379.38 256.88 379.51 236.95 379.67 C 218.90 379.81 215.49 380.08 214.12 381.46 C 212.93 382.65 212.24 386.42 211.50 395.79 L 210.50 408.50 L 202.37 408.79 C 195.63 409.03 194.14 408.80 193.62 407.46 Z"/>
<path d="M 506.00 408.29 C 503.46 407.29 503.03 405.78 503.02 397.79 C 503.00 388.28 503.62 387.80 515.26 388.21 L 523.50 388.50 L 524.00 392.00 C 524.27 393.93 524.27 398.43 524.00 402.00 L 523.50 408.50 L 515.50 408.69 C 511.10 408.79 506.82 408.61 506.00 408.29 Z"/>
<path d="M 819.75 407.31 C 818.57 407.00 817.98 405.83 817.94 403.68 C 817.81 396.99 816.93 384.40 816.45 382.21 C 815.71 378.86 811.65 377.73 803.21 378.51 C 795.26 379.24 770.93 378.19 769.06 377.04 C 768.28 376.55 767.83 371.54 767.70 361.70 C 767.53 349.62 767.77 346.81 769.06 345.52 C 770.37 344.20 775.41 343.87 801.59 343.37 C 830.41 342.81 832.67 342.90 834.03 344.54 C 836.13 347.07 836.22 403.83 834.13 406.35 C 833.12 407.56 831.25 407.97 827.13 407.88 C 824.03 407.82 820.71 407.56 819.75 407.31 Z"/>
<path d="M 511.00 378.20 C 507.43 378.03 504.09 377.48 503.59 376.98 C 502.77 376.17 502.56 369.08 502.12 326.94 C 502.04 318.97 501.58 314.81 500.65 313.53 C 499.35 311.76 496.02 311.68 423.40 311.59 L 347.50 311.50 L 347.52 302.81 C 347.54 298.03 347.91 293.76 348.35 293.32 C 350.03 291.64 367.57 291.16 429.62 291.08 C 464.89 291.04 495.17 290.72 496.91 290.37 C 498.65 290.02 500.50 288.94 501.02 287.97 C 501.55 286.97 502.22 263.35 502.56 233.35 C 502.91 202.75 503.55 180.09 504.09 179.53 C 505.46 178.13 521.84 178.44 523.30 179.90 C 524.19 180.79 524.56 192.68 524.76 225.80 C 525.06 279.08 525.45 286.45 528.10 289.10 C 529.94 290.94 532.54 291.00 604.64 290.94 C 646.08 290.91 679.67 291.27 680.16 291.76 C 681.18 292.78 681.48 309.85 680.50 310.84 C 680.13 311.20 645.63 311.57 603.82 311.65 C 548.10 311.76 527.49 312.11 526.65 312.95 C 525.85 313.75 525.42 322.82 525.25 342.80 C 525.11 358.58 524.76 372.91 524.47 374.64 C 523.87 378.26 522.13 378.72 511.00 378.20 Z"/>
<path d="M 224.82 313.33 C 222.88 313.01 221.97 312.13 221.57 310.19 C 220.71 306.11 220.58 240.42 221.42 233.00 C 221.82 229.43 222.52 226.12 222.97 225.65 C 224.35 224.23 257.78 224.38 259.22 225.82 C 260.15 226.75 260.55 237.69 260.84 270.03 L 261.23 313.00 L 250.87 313.03 C 245.17 313.05 237.57 313.23 234.00 313.43 C 230.43 313.63 226.29 313.58 224.82 313.33 Z"/>
<path d="M 197.42 301.29 C 196.41 286.08 196.36 217.47 197.35 209.03 C 197.76 205.47 198.60 202.25 199.20 201.88 C 202.34 199.94 281.75 199.41 283.65 201.32 C 284.10 201.76 284.63 214.41 284.84 229.42 L 285.22 256.72 L 279.27 257.39 C 269.49 258.50 270.00 259.59 270.00 237.55 C 270.00 219.61 269.87 218.19 268.01 216.51 C 266.17 214.84 264.20 214.75 242.10 215.27 C 220.14 215.78 215.69 216.31 213.00 218.72 C 212.72 218.96 212.28 240.17 212.00 265.83 L 211.50 312.50 L 204.85 312.79 L 198.20 313.09 L 197.42 301.29 Z"/>
<path d="M 272.00 312.02 C 270.75 311.23 270.50 307.76 270.47 291.29 C 270.46 280.40 270.62 270.48 270.84 269.23 L 271.24 266.96 L 292.87 267.23 L 314.50 267.50 L 314.81 272.83 C 315.25 280.67 314.71 281.00 301.43 281.00 C 291.10 281.00 289.89 281.20 287.60 283.25 C 285.25 285.36 285.05 286.31 284.41 298.50 C 284.00 306.19 283.27 311.80 282.61 312.23 C 281.02 313.29 273.77 313.14 272.00 312.02 Z"/>
<path d="M 295.11 311.64 C 294.33 310.69 294.02 307.01 294.21 300.87 L 294.50 291.53 L 298.00 290.98 C 299.93 290.68 304.43 290.67 308.00 290.97 L 314.50 291.50 L 315.00 295.50 C 315.27 297.70 315.27 302.43 315.00 306.00 L 314.50 312.50 L 305.40 312.79 C 298.45 313.00 296.02 312.73 295.11 311.64 Z"/>
<path d="M 715.25 310.97 C 713.15 310.13 713.00 309.46 713.02 301.28 C 713.02 296.45 713.40 291.92 713.85 291.21 C 714.44 290.27 717.22 290.00 724.08 290.21 L 733.50 290.50 L 733.79 300.26 C 734.07 309.96 734.06 310.03 731.47 311.01 C 728.28 312.23 718.31 312.20 715.25 310.97 Z"/>
<path d="M 769.00 311.02 C 767.70 310.20 767.54 305.35 767.81 275.29 C 768.16 234.95 768.55 226.05 770.03 224.57 C 770.70 223.90 777.20 223.50 787.63 223.50 C 802.39 223.50 804.30 223.69 805.48 225.30 C 806.21 226.30 807.11 231.52 807.51 237.08 C 808.22 247.05 807.24 309.80 806.35 311.24 C 805.67 312.35 770.78 312.14 769.00 311.02 Z"/>
<path d="M 744.55 309.75 C 744.34 309.06 743.88 302.88 743.54 296.00 C 743.16 288.35 742.45 283.03 741.71 282.29 C 740.96 281.54 735.50 280.82 727.50 280.40 C 719.80 280.00 714.19 279.28 713.74 278.62 C 713.32 278.00 713.10 275.02 713.24 272.00 L 713.50 266.50 L 735.50 266.50 L 757.50 266.50 L 757.79 285.50 C 757.95 295.95 757.82 305.96 757.50 307.75 C 756.91 310.99 756.89 311.00 750.92 311.00 C 747.01 311.00 744.80 310.57 744.55 309.75 Z"/>
<path d="M 817.53 310.05 C 817.21 309.53 816.96 288.41 816.98 263.11 L 817.01 217.12 L 814.78 215.56 C 812.92 214.26 808.76 214.00 789.43 214.00 C 764.79 214.00 760.31 214.65 759.55 218.35 C 759.30 219.53 758.92 228.27 758.70 237.77 C 758.48 247.27 757.97 255.36 757.58 255.75 C 756.64 256.69 744.38 256.71 743.44 255.77 C 742.53 254.86 742.53 207.43 743.44 203.26 L 744.12 200.18 L 754.31 199.51 C 759.91 199.15 778.82 198.99 796.33 199.17 C 825.43 199.47 828.27 199.65 829.46 201.27 C 831.93 204.65 832.73 300.85 830.36 309.25 C 829.96 310.66 828.73 311.00 823.99 311.00 C 820.76 311.00 817.85 310.57 817.53 310.05 Z"/>
<path d="M 348.22 256.25 C 347.22 253.82 347.31 186.36 348.32 185.35 C 349.30 184.36 397.85 183.96 407.00 184.86 L 413.50 185.50 L 413.79 194.63 L 414.07 203.75 L 411.29 204.29 C 409.75 204.58 401.35 204.88 392.60 204.95 C 383.86 205.03 375.90 205.52 374.92 206.04 C 373.94 206.57 372.80 208.01 372.39 209.25 C 371.98 210.49 371.62 221.40 371.58 233.50 C 371.53 245.60 371.14 256.06 370.69 256.75 C 370.13 257.62 366.69 258.00 359.41 258.00 C 350.38 258.00 348.84 257.76 348.22 256.25 Z"/>
<path d="M 381.71 257.38 C 381.32 256.99 381.00 247.54 381.00 236.39 C 381.00 221.27 381.32 215.91 382.25 215.31 C 382.94 214.86 391.48 214.26 401.24 213.97 C 416.06 213.53 419.26 213.16 420.67 211.76 C 422.69 209.74 423.77 198.07 423.00 186.53 C 422.21 174.52 424.50 175.21 384.54 175.08 C 366.14 175.02 350.37 174.69 349.49 174.36 C 348.27 173.89 347.97 172.58 348.20 168.69 C 348.47 164.17 348.78 163.56 351.16 162.93 C 355.67 161.73 434.32 160.77 435.98 161.89 C 437.21 162.73 437.51 167.84 437.82 192.70 C 438.06 212.33 437.82 223.44 437.12 225.25 L 436.05 228.00 L 417.72 228.00 C 403.49 228.00 398.95 228.32 397.44 229.41 C 395.79 230.62 395.35 232.81 394.50 244.16 L 393.50 257.50 L 387.96 257.79 C 384.91 257.96 382.10 257.77 381.71 257.38 Z"/>
<path d="M 404.75 257.46 C 403.62 256.26 403.85 241.15 405.04 238.93 C 405.99 237.15 407.28 237.00 421.79 236.99 C 437.69 236.99 443.83 236.12 445.95 233.56 C 446.79 232.55 447.14 221.66 447.19 194.60 C 447.26 161.10 447.09 156.78 445.59 154.50 L 443.92 151.95 L 399.73 152.48 C 375.43 152.77 354.07 152.73 352.27 152.39 L 349.00 151.78 L 349.00 142.46 C 349.00 135.59 349.39 132.76 350.47 131.67 C 352.24 129.90 360.80 129.33 401.50 128.28 C 438.76 127.32 462.80 127.30 466.15 128.24 C 468.51 128.90 468.86 129.59 469.27 134.24 C 469.95 141.98 469.80 240.32 469.10 248.46 L 468.50 255.43 L 465.00 256.17 C 459.95 257.25 405.64 258.41 404.75 257.46 Z"/>
<path d="M 580.67 257.02 C 564.36 256.57 561.67 256.27 560.57 254.77 C 559.80 253.71 559.06 247.81 558.66 239.36 C 557.85 222.46 557.81 135.31 558.61 132.32 C 558.93 131.12 559.94 129.81 560.85 129.41 C 562.97 128.48 640.55 128.12 661.24 128.94 C 671.84 129.37 677.38 129.98 678.24 130.83 C 678.99 131.59 679.64 135.56 679.86 140.73 C 680.17 148.15 679.97 149.55 678.42 150.68 C 676.99 151.73 667.13 152.00 630.88 152.00 L 585.15 152.00 L 583.07 154.63 C 581.06 157.19 581.00 158.34 581.00 195.06 C 581.00 228.09 581.20 233.06 582.57 234.43 C 583.89 235.74 587.19 236.00 602.82 236.02 C 613.09 236.02 622.00 236.36 622.61 236.77 C 623.23 237.17 624.01 241.84 624.36 247.14 C 624.91 255.49 624.78 256.87 623.38 257.41 C 621.75 258.03 615.50 257.98 580.67 257.02 Z"/>
<path d="M 634.51 255.75 C 634.28 255.06 633.96 249.23 633.79 242.78 C 633.39 226.70 634.68 227.58 611.54 227.54 C 595.25 227.50 592.86 227.29 591.31 225.73 C 589.70 224.13 589.55 221.61 589.70 197.79 C 589.89 168.24 590.39 162.46 592.83 161.49 C 595.51 160.44 678.24 160.84 679.31 161.91 C 679.83 162.43 680.31 165.46 680.38 168.65 L 680.50 174.43 L 676.50 175.16 C 674.30 175.56 658.46 175.91 641.31 175.94 C 602.04 176.01 604.94 174.62 604.89 193.50 C 604.87 200.65 605.30 207.67 605.85 209.11 C 607.16 212.55 609.76 213.00 628.43 213.00 C 639.97 213.00 644.08 213.34 645.56 214.42 C 647.35 215.73 647.50 217.18 647.50 233.67 C 647.50 243.48 647.15 252.74 646.73 254.25 C 646.01 256.82 645.61 257.00 640.45 257.00 C 636.93 257.00 634.78 256.55 634.51 255.75 Z"/>
<path d="M 657.70 256.25 C 657.48 255.84 657.19 245.43 657.07 233.12 C 656.85 211.01 656.38 207.01 653.81 205.35 C 653.09 204.88 644.53 204.28 634.80 204.00 C 622.35 203.65 616.72 203.12 615.82 202.22 C 614.46 200.86 614.14 187.53 615.44 186.22 C 616.54 185.13 679.16 184.76 680.25 185.85 C 680.77 186.37 681.24 201.50 681.34 220.92 C 681.48 250.31 681.29 255.20 680.00 256.02 C 678.23 257.14 658.31 257.34 657.70 256.25 Z"/>
</g></svg>