<svg xmlns="http://www.w3.org/2000/svg" viewBox="0 0 783 157" width="391" height="78"><rect width="783" height="157" fill="#f7f3ea"/><path d="M0.0,78.5L0.0,0.0L783.0,0.0L783.0,157.0L0.0,157.0Z" fill="#2b221a"/><path d="M241.2,149.3Q243.0,147.7 249.8,149.3Q255.0,150.6 276.5,151.0L296.4,151.0L302.6,145.0L308.4,151.0Q371.2,151.0 381.8,149.8Q383.5,148.1 381.8,7.2Q379.9,5.3 133.1,7.4Q131.6,9.2 135.2,33.0Q137.2,37.6 152.4,60.8Q155.1,63.9 167.5,68.5Q174.7,70.5 179.3,78.4Q179.0,79.7 180.4,83.9Q181.5,85.9 181.5,90.3Q181.0,92.9 183.2,95.6Q187.1,99.1 200.4,101.8Q204.3,101.4 212.3,108.4L220.1,115.3L213.5,122.1Q217.6,125.5 221.1,125.6Q223.2,125.2 227.6,129.1L231.4,133.0Q216.6,147.9 230.9,151.0Q237.5,151.0 241.2,149.3Z" fill="#2b221a"/><path d="M445.4,148.8Q446.2,147.4 442.6,139.8Q440.4,135.8 435.8,128.9Q434.3,126.9 433.0,123.8Q433.0,121.9 449.3,108.0Q450.1,108.0 455.1,109.5Q458.9,110.9 460.9,109.5Q462.8,107.6 457.9,103.3Q456.6,102.7 452.7,99.2L449.9,96.3Q461.7,85.6 471.8,76.4Q475.5,73.0 487.8,64.1Q497.7,57.5 507.6,41.4Q510.2,36.9 515.7,29.9L519.0,26.6Q524.6,32.1 530.6,44.2Q533.2,50.2 537.2,57.5Q538.6,59.3 550.4,63.5Q556.6,65.4 564.1,67.0Q566.9,67.0 569.0,63.1Q569.0,62.3 546.1,38.6Q530.0,22.4 522.4,12.5Q520.8,5.5 458.0,6.0Q412.2,6.0 396.2,7.2Q394.4,9.0 396.2,149.8Q397.1,150.7 420.9,150.8Q441.8,150.5 445.4,148.8Z" fill="#2b221a"/><path d="M424.1,67.6Q421.2,64.6 422.0,61.9Q422.7,60.6 426.3,56.2L429.4,53.0Q437.0,60.4 432.7,67.8Q430.9,69.6 428.4,71.0Q427.8,71.0 424.1,67.6Z" fill="#2b221a"/><path d="M0.0,78.5L0.0,0.0L783.0,0.0L783.0,157.0L0.0,157.0Z" fill="#f7f3ea"/><path d="M325.3,145.7Q331.1,140.5 329.3,138.2Q328.0,136.6 318.0,134.2L308.5,132.3Q304.2,136.6 303.0,138.8Q303.0,139.4 307.6,145.4Q311.6,150.4 315.8,151.0Q318.8,150.9 325.3,145.7Z" fill="#f7f3ea"/><path d="M356.9,148.4Q358.1,146.9 359.0,144.4Q359.0,142.2 350.3,139.0Q342.7,139.0 336.7,150.3Q337.0,150.7 346.1,151.0Q354.4,151.0 356.9,148.4Z" fill="#f7f3ea"/><path d="M282.2,147.3Q284.4,145.3 282.3,141.8Q279.8,139.0 269.0,142.6Q266.1,145.1 267.6,147.1Q269.9,149.6 282.2,147.3Z" fill="#f7f3ea"/><path d="M288.2,111.3Q290.9,108.8 287.0,101.5Q283.4,98.1 292.7,93.4Q300.9,89.5 301.3,96.9Q300.8,101.0 303.5,104.8Q305.0,106.6 307.9,108.0Q310.8,108.0 316.9,95.9Q319.4,88.9 322.5,88.6Q324.2,88.7 334.5,92.1Q342.5,95.2 343.8,98.2Q344.0,99.7 343.0,103.1Q342.0,104.8 343.3,106.8Q344.7,108.2 347.0,104.7L349.2,101.0Q365.1,101.0 371.3,92.1Q373.3,88.1 376.5,87.6Q378.2,87.6 381.2,88.4Q382.9,89.2 383.0,48.8Q383.0,18.7 381.8,7.2Q380.9,6.3 308.0,6.0L235.3,6.0Q233.0,58.4 230.3,72.2Q229.0,77.6 228.5,83.0Q228.8,83.5 232.5,85.8Q234.3,86.7 240.0,92.8Q245.3,99.6 257.5,100.6Q264.4,99.9 274.4,109.4Q278.8,113.9 282.8,113.5Q284.8,113.1 288.2,111.3Z" fill="#f7f3ea"/><path d="M402.2,97.1Q408.9,94.3 408.0,86.3Q406.6,80.8 410.0,74.2Q411.8,70.7 418.0,60.6Q420.6,56.7 428.0,43.1Q430.8,37.4 435.5,29.1Q437.3,26.2 438.4,15.8L439.0,6.0Q403.4,6.0 396.2,7.2Q395.3,8.1 395.0,53.7Q395.0,104.1 402.2,97.1Z" fill="#f7f3ea"/><path d="M215.7,80.8Q216.1,80.1 218.6,73.2Q220.7,67.2 219.0,64.8Q217.3,62.7 210.1,63.7Q202.0,65.0 200.0,69.8Q200.0,73.3 212.3,82.0Q213.7,82.0 215.7,80.8Z" fill="#f7f3ea"/><path d="M181.8,64.1Q190.9,58.2 196.9,49.1Q197.4,47.1 198.5,25.8L199.2,6.0Q146.9,6.0 133.4,7.0Q132.1,8.3 135.5,31.7Q137.9,37.4 153.8,60.3Q157.2,63.5 172.6,67.9Q174.6,68.0 181.8,64.1Z" fill="#f7f3ea"/><path d="M487.7,62.5Q497.4,56.1 508.7,37.8Q519.7,19.2 518.5,12.6L517.8,6.0Q460.6,6.0 444.0,6.5Q444.0,8.0 474.3,65.8Q475.4,67.0 477.9,68.0Q478.8,68.0 487.7,62.5Z" fill="#f7f3ea"/></svg>