<svg xmlns="http://www.w3.org/2000/svg" viewBox="0 0 928 265" width="464" height="132"><rect width="928" height="265" fill="#f7f3ea"/><path d="M0.0,204.9L0.0,144.8Q5.9,146.1 21.8,134.9Q26.2,131.4 30.9,123.3L34.3,116.2Q31.3,112.4 29.3,107.4Q24.5,90.4 25.5,80.1Q26.0,78.2 25.0,71.4Q23.9,67.1 25.0,63.0Q26.2,60.1 23.1,56.6Q21.4,54.9 20.0,52.4Q20.0,50.5 12.6,47.4Q8.1,46.6 1.0,37.9Q1.0,34.6 14.0,25.5Q16.6,24.6 20.6,21.8Q21.7,20.7 30.3,14.3Q41.3,6.5 17.9,6.0L0.0,6.0L0.0,0.0L928.0,0.0L928.0,6.0Q880.7,6.0 883.0,14.0Q884.2,19.0 880.3,27.3Q878.1,31.8 871.3,43.0Q868.5,47.1 864.6,53.7Q863.7,55.4 858.9,60.2Q851.0,66.5 846.0,72.4Q846.0,74.2 856.8,82.1Q860.9,84.1 873.2,83.6L885.3,82.9Q895.1,92.6 897.2,96.4Q896.8,97.0 896.3,103.5Q896.2,106.8 895.5,112.7Q894.7,116.1 903.8,123.6Q906.1,125.6 908.0,128.5Q908.0,131.1 914.1,131.3Q915.8,130.6 922.5,130.7L928.0,131.3L928.0,265.0L0.0,265.0Z" fill="#2b221a"/><path d="M480.4,158.1Q482.1,157.1 487.0,155.5Q488.9,155.1 495.1,150.9Q499.2,147.5 500.2,142.2Q500.5,138.9 503.4,133.8Q505.8,130.6 505.4,124.4Q505.1,121.1 503.8,115.8Q503.0,113.6 505.0,109.5L507.2,105.9Q502.8,101.2 504.3,99.2Q505.3,98.1 506.0,93.4Q506.0,90.2 503.0,86.5Q500.4,84.0 500.6,80.0Q501.0,77.5 499.5,73.1Q498.5,71.1 498.5,67.0Q499.4,63.0 488.4,55.8Q482.6,54.2 477.7,45.2Q478.3,44.2 479.5,33.2Q480.1,24.7 482.4,20.2Q488.1,13.3 489.7,7.1Q488.2,5.6 428.3,7.1Q426.5,8.9 440.6,26.0Q441.4,26.0 445.9,29.6Q449.3,32.6 449.3,36.4Q448.9,38.9 451.4,42.6L453.9,45.7Q447.5,51.9 426.0,58.9Q415.6,61.8 406.4,69.1Q403.6,71.9 393.9,79.4Q386.4,84.6 380.0,96.4Q380.0,98.7 420.5,136.2Q422.3,137.1 428.5,143.2Q436.4,152.1 445.7,155.0Q448.1,155.0 453.8,156.6Q456.9,158.0 474.9,159.9Q476.2,159.9 480.4,158.1Z" fill="#2b221a"/><path d="M0.0,201.5Q0.0,144.8 1.5,138.7Q3.2,139.3 7.0,134.4Q7.0,133.7 9.6,131.3Q11.0,130.3 14.0,125.3Q15.8,121.2 13.6,119.1Q9.2,115.0 3.3,124.4Q3.0,126.3 1.4,129.1Q0.2,130.1 0.0,65.1L0.0,0.0L928.0,0.0L928.0,6.0Q881.7,6.0 885.4,12.3Q888.7,20.3 907.7,16.5Q913.4,14.5 919.0,13.5Q919.6,13.8 920.0,16.9Q920.0,18.5 922.5,22.0Q925.5,24.8 923.0,29.5Q920.4,31.8 925.6,33.4L928.0,32.8Q928.0,57.2 927.3,63.7Q927.0,63.3 925.4,64.1Q923.5,65.6 920.4,59.5Q918.8,55.2 920.5,51.6Q922.3,48.4 920.7,45.6Q918.7,42.6 915.4,44.5Q914.4,45.3 910.9,46.0Q907.2,46.0 902.6,53.2Q901.5,58.7 899.9,78.0Q899.8,86.1 904.6,93.0Q908.4,96.3 912.1,95.0Q913.5,94.2 916.4,95.5Q918.6,97.0 921.7,95.6Q926.6,93.1 925.6,88.5Q924.4,86.6 921.2,86.2Q918.9,86.5 918.2,83.7Q917.7,79.3 924.5,83.5L928.0,87.3Q928.0,111.8 927.0,118.0Q926.5,118.0 922.5,121.1Q919.2,124.0 920.5,126.0Q921.4,127.0 925.1,128.4L928.0,128.9L928.0,265.0L0.0,265.0Z" fill="#f7f3ea"/><path d="M489.2,145.3Q491.0,144.4 494.0,143.0Q494.8,142.6 495.8,140.6Q496.2,138.6 491.5,135.0Q490.8,135.0 487.5,131.5Q484.6,127.6 487.8,125.5Q491.7,127.2 495.7,124.6Q498.4,122.3 499.2,115.3Q499.6,109.8 497.8,106.1Q496.4,104.2 496.0,95.5Q496.0,88.8 494.0,84.7Q492.9,83.3 492.0,81.3Q492.0,80.8 489.4,77.9L486.8,75.5Q483.1,79.8 482.0,82.0Q482.0,82.5 485.4,85.5Q488.3,87.7 489.4,93.7Q489.9,98.0 488.5,101.0Q486.2,103.5 490.2,108.2Q493.3,110.7 491.9,112.5Q491.0,113.5 486.9,114.9Q484.5,115.4 482.1,118.5Q481.4,120.2 478.0,124.5Q475.6,127.0 475.4,132.3Q475.5,134.9 476.8,138.2Q477.5,138.9 478.0,141.0Q478.0,143.7 483.5,147.0Q484.8,147.0 489.2,145.3Z" fill="#f7f3ea"/><path d="M457.1,142.5Q458.8,139.7 463.1,138.4Q469.5,137.3 464.3,131.5Q459.8,128.1 454.1,129.1Q453.2,129.3 452.3,127.5Q451.3,122.1 448.5,119.4Q445.5,117.4 442.5,123.1Q441.9,126.0 433.2,134.0Q432.7,134.0 430.5,136.0Q428.7,138.0 430.6,140.7Q433.8,145.0 437.9,143.6Q439.1,142.5 440.0,139.8Q440.0,137.1 444.4,138.5Q446.5,142.2 453.0,146.0Q454.3,146.0 457.1,142.5Z" fill="#f7f3ea"/><path d="M439.0,119.7Q440.4,119.3 446.8,114.2Q452.5,108.8 450.0,102.5Q448.3,100.7 449.2,97.2Q450.3,94.3 447.7,91.2Q446.2,89.7 445.0,87.3Q445.0,86.7 449.2,82.7Q455.5,77.5 441.7,73.4Q437.3,72.9 433.8,75.0Q431.2,77.0 431.0,84.0Q431.0,87.9 429.9,91.6Q428.6,92.4 431.1,102.7Q432.3,105.7 430.1,108.4L427.7,110.9Q431.6,117.4 430.9,119.6Q430.0,120.7 431.0,122.5Q432.2,123.9 434.4,122.2Q435.6,121.1 439.0,119.7Z" fill="#f7f3ea"/><path d="M925.2,75.2Q923.7,72.5 923.6,66.9Q924.9,64.8 928.0,73.2Q928.0,77.2 925.2,75.2Z" fill="#f7f3ea"/><path d="M472.2,68.2Q473.1,67.3 471.5,65.0Q470.5,63.9 468.8,63.0Q468.2,63.0 465.2,61.0L462.6,58.9Q455.7,65.8 457.4,67.9Q458.8,69.5 465.1,69.6Q468.3,69.5 472.2,68.2Z" fill="#f7f3ea"/><path d="M461.8,30.4Q463.1,29.5 464.0,26.3Q464.0,24.8 466.2,21.3Q468.2,19.1 466.7,17.3Q465.4,15.9 462.5,16.8Q459.1,18.4 455.5,16.8Q455.3,16.1 454.5,10.7L453.9,6.0Q434.6,6.0 429.0,6.6Q429.0,7.2 438.5,21.7Q439.3,22.9 445.3,25.4Q448.2,26.2 453.0,29.5Q455.7,32.4 461.8,30.4Z" fill="#f7f3ea"/><path d="M478.6,21.6Q479.0,20.5 483.0,15.0Q485.1,12.5 487.9,8.2Q489.1,5.9 483.8,6.2Q478.6,6.5 476.9,10.9Q476.0,13.3 472.7,17.2Q469.4,19.6 472.1,24.4Q474.1,27.0 476.1,25.4Q477.1,24.5 478.6,21.6Z" fill="#f7f3ea"/><path d="M29.9,10.6Q31.4,9.8 33.9,7.6Q35.1,6.2 20.6,6.0Q6.9,6.0 7.2,8.7Q9.0,9.8 23.3,11.9Q25.4,11.9 29.9,10.6Z" fill="#f7f3ea"/></svg>